<svg width="40" height="41" viewBox="0 0 40 41" fill="none" xmlns="http://www.w3.org/2000/svg">
<path d="M20 3.93098C10.8 3.93098 3.33334 11.3977 3.33334 20.5977C3.33334 29.7977 10.8 37.2643 20 37.2643C29.2 37.2643 36.6667 29.7977 36.6667 20.5977C36.6667 11.3977 29.2 3.93098 20 3.93098ZM20 8.93098C22.7667 8.93098 25 11.1643 25 13.931C25 16.6977 22.7667 18.931 20 18.931C17.2333 18.931 15 16.6977 15 13.931C15 11.1643 17.2333 8.93098 20 8.93098ZM20 32.5977C18.0198 32.5977 16.0703 32.1076 14.3255 31.1712C12.5806 30.2348 11.0946 28.8812 10 27.231C10.05 23.9143 16.6667 22.0977 20 22.0977C23.3167 22.0977 29.95 23.9143 30 27.231C28.9054 28.8812 27.4194 30.2348 25.6745 31.1712C23.9297 32.1076 21.9802 32.5977 20 32.5977Z" fill="#406363"/>
</svg>
