<svg width="40" height="40" viewBox="0 0 40 40" fill="none" xmlns="http://www.w3.org/2000/svg">
<path d="M19.9997 3.33334C10.7997 3.33334 3.33301 10.8 3.33301 20C3.33301 29.2 10.7997 36.6667 19.9997 36.6667C29.1997 36.6667 36.6663 29.2 36.6663 20C36.6663 10.8 29.1997 3.33334 19.9997 3.33334ZM19.9997 8.33334C22.7663 8.33334 24.9997 10.5667 24.9997 13.3333C24.9997 16.1 22.7663 18.3333 19.9997 18.3333C17.233 18.3333 14.9997 16.1 14.9997 13.3333C14.9997 10.5667 17.233 8.33334 19.9997 8.33334ZM19.9997 32C18.0194 32 16.07 31.51 14.3251 30.5736C12.5803 29.6372 11.0943 28.2835 9.99967 26.6333C10.0497 23.3167 16.6663 21.5 19.9997 21.5C23.3163 21.5 29.9497 23.3167 29.9997 26.6333C28.905 28.2835 27.4191 29.6372 25.6742 30.5736C23.9294 31.51 21.9799 32 19.9997 32Z" fill="white"/>
</svg>
