<svg width="80" height="28" viewBox="0 0 80 28" fill="none" xmlns="http://www.w3.org/2000/svg">
<path d="M15.2831 0.228532C15.3866 0.228532 15.4641 0.266619 15.5159 0.342795C15.5934 0.393578 15.6322 0.457058 15.6322 0.533234V6.13212C15.6322 6.2083 15.5934 6.28447 15.5159 6.36065C15.4641 6.41143 15.3866 6.43682 15.2831 6.43682H0V0.533234C0 0.457058 0.0258597 0.393578 0.0775791 0.342795C0.155158 0.266619 0.232738 0.228532 0.310317 0.228532H15.2831ZM15.2831 20.7197C15.5159 20.7197 15.6322 20.8213 15.6322 21.0244V26.5852C15.6322 26.7883 15.5159 26.8899 15.2831 26.8899H0.310317C0.232738 26.8899 0.155158 26.8645 0.0775791 26.8137C0.0258597 26.7629 0 26.6868 0 26.5852V10.5122L13.8479 10.436C13.9513 10.436 14.0289 10.4741 14.0806 10.5503C14.1582 10.6011 14.197 10.6646 14.197 10.7407V16.3396C14.197 16.4158 14.1582 16.492 14.0806 16.5681C14.0289 16.6189 13.9643 16.6443 13.8867 16.6443L6.55545 16.6824V20.7197H15.2831Z" fill="#F4F4F4"/>
<path d="M43.5045 11.2595L43.5274 26.6995C43.5274 26.7756 43.5532 26.8518 43.605 26.928C43.6825 27.0042 43.7601 27.0423 43.8377 27.0423H49.8113C49.8889 27.0423 49.9535 27.0042 50.0052 26.928C50.0828 26.8518 50.1216 26.7756 50.1216 26.6995L50.0897 5.17893L43.5045 11.2595Z" fill="#F4F4F4"/>
<path d="M50.0832 0.782757L50.0828 0.533234C50.0828 0.431666 50.044 0.355491 49.9665 0.304708C49.9147 0.228532 49.8501 0.190444 49.7725 0.190444H43.7989C43.7213 0.190444 43.6437 0.228532 43.5662 0.304708C43.5144 0.355491 43.4886 0.431666 43.4886 0.533234L43.498 6.86333L50.0832 0.782757Z" fill="#F4F4F4"/>
<path d="M66.2374 11.7691L61.3112 22.3956L59.2165 26.6614C59.2165 26.6868 59.2036 26.7122 59.1777 26.7375C59.1519 26.7629 59.1389 26.7756 59.1389 26.7756C59.0614 26.8518 58.9838 26.8899 58.9062 26.8899H52.7774C52.6481 26.8899 52.5447 26.8518 52.4671 26.7756C52.4154 26.6995 52.4283 26.5852 52.5059 26.4328L65.9271 0.190438C65.9788 0.0634794 66.0823 0 66.2374 0C66.315 0 66.3926 0.0380879 66.4702 0.114264L66.5478 0.228525L79.9302 26.4328C80.0078 26.5598 80.0207 26.6614 79.969 26.7375C79.9431 26.8137 79.9173 26.8518 79.8914 26.8518C79.8655 26.8772 79.788 26.8899 79.6587 26.8899H73.5299C73.4523 26.8899 73.3747 26.8518 73.2971 26.7756L73.2196 26.6614L71.1249 22.3956L66.2374 11.7691Z" fill="#F4F4F4"/>
<path d="M30.0487 16.9529C31.3115 16.8221 32.5523 16.5213 33.7358 16.057L33.7485 16.052L33.7659 16.0349C35.3692 15.4509 36.6105 14.4606 37.4897 13.0641C38.3689 11.6421 38.8085 10.0552 38.8085 8.30312C38.8085 8.04921 38.7827 7.66833 38.731 7.1605C38.5241 5.81473 38.0327 4.60862 37.257 3.54217C36.507 2.47571 35.5631 1.65048 34.4253 1.06647C33.2875 0.482455 32.0462 0.215842 30.7015 0.266625H30.0487V6.09404H30.236C30.9342 6.09404 31.529 6.36065 32.0204 6.89388C32.4858 7.42711 32.6798 8.01112 32.6022 8.64591V8.72209C32.6022 9.35688 32.4082 9.96629 32.0204 10.5503C31.5549 11.0835 30.9601 11.3501 30.236 11.3501H30.0487V16.9529Z" fill="#F4F4F4"/>
<path d="M25.8927 6.09404H25.7752V11.3501H25.8927V17.0252H25.8916V26.509C25.8916 26.5852 25.8787 26.6487 25.8528 26.6995C25.8269 26.7503 25.8011 26.7883 25.7752 26.8137C25.6718 26.9153 25.5683 26.9661 25.4649 26.9661H19.6465C19.5689 26.9661 19.4913 26.9407 19.4137 26.8899C19.362 26.8137 19.3361 26.7376 19.3361 26.6614V0.571326C19.3361 0.469759 19.362 0.393584 19.4137 0.342801C19.4913 0.292017 19.5689 0.266625 19.6465 0.266625H25.8927V6.09404Z" fill="#F4F4F4"/>
<path d="M39.7007 26.509C39.8041 26.636 39.8041 26.7503 39.7007 26.8518C39.6748 26.928 39.5843 26.9661 39.4292 26.9661H32.6798C32.5505 26.9661 32.46 26.9153 32.4082 26.8137L31.1702 21.0244C33.2483 20.3325 33.9409 20.4041 35.4169 18.7283L39.7007 26.509Z" fill="#F4F4F4"/>
<path d="M25.2 5.80566H25.8927V11.9269H25.2V5.80566Z" fill="#F4F4F4"/>
</svg>
