<svg width="291" height="100" viewBox="0 0 291 100" fill="none" xmlns="http://www.w3.org/2000/svg">
<path d="M55.4929 0.845091C55.8685 0.845091 56.1502 0.985937 56.338 1.26763C56.6197 1.45542 56.7605 1.69016 56.7605 1.97185V22.6761C56.7605 22.9578 56.6197 23.2395 56.338 23.5211C56.1502 23.7089 55.8685 23.8028 55.4929 23.8028H0V1.97185C0 1.69016 0.0938965 1.45542 0.28169 1.26763C0.56338 0.985937 0.84507 0.845091 1.12676 0.845091H55.4929ZM55.4929 76.6197C56.338 76.6197 56.7605 76.9953 56.7605 77.7465V98.3099C56.7605 99.061 56.338 99.4366 55.4929 99.4366H1.12676C0.84507 99.4366 0.56338 99.3427 0.28169 99.1549C0.0938965 98.9671 0 98.6854 0 98.3099V38.8733L50.2817 38.5916C50.6573 38.5916 50.939 38.7324 51.1267 39.0141C51.4084 39.2019 51.5493 39.4366 51.5493 39.7183V60.4225C51.5493 60.7042 51.4084 60.9859 51.1267 61.2676C50.939 61.4554 50.7042 61.5493 50.4225 61.5493L23.8028 61.6902V76.6197H55.4929Z" fill="#406363"/>
<path d="M157.965 41.6367L158.048 98.7324C158.048 99.0141 158.142 99.2958 158.329 99.5775C158.611 99.8592 158.893 100 159.175 100H180.865C181.146 100 181.381 99.8592 181.569 99.5775C181.851 99.2958 181.991 99.0141 181.991 98.7324L181.876 19.1513L157.965 41.6367Z" fill="#406363"/>
<path d="M181.852 2.89457L181.851 1.97185C181.851 1.59627 181.71 1.31458 181.428 1.12679C181.24 0.845093 181.006 0.704246 180.724 0.704246H159.034C158.752 0.704246 158.47 0.845093 158.189 1.12679C158.001 1.31458 157.907 1.59627 157.907 1.97185L157.941 25.38L181.852 2.89457Z" fill="#406363"/>
<path d="M240.508 43.5211L222.621 82.8169L215.015 98.5915C215.015 98.6854 214.968 98.7793 214.874 98.8732C214.78 98.9671 214.733 99.0141 214.733 99.0141C214.452 99.2958 214.17 99.4366 213.888 99.4366H191.635C191.165 99.4366 190.79 99.2958 190.508 99.0141C190.32 98.7324 190.367 98.3098 190.649 97.7465L239.381 0.704225C239.569 0.234742 239.945 0 240.508 0C240.79 0 241.071 0.140846 241.353 0.422538L241.635 0.845068L290.226 97.7465C290.508 98.216 290.555 98.5915 290.367 98.8732C290.273 99.1549 290.179 99.2958 290.085 99.2958C289.991 99.3897 289.71 99.4366 289.24 99.4366H266.987C266.705 99.4366 266.423 99.2958 266.142 99.0141L265.86 98.5915L258.254 82.8169L240.508 43.5211Z" fill="#406363"/>
<path d="M109.107 62.6904C113.692 62.2068 118.197 61.0943 122.495 59.3774L122.541 59.3589L122.604 59.2958C128.425 57.1362 132.932 53.4742 136.125 48.3099C139.317 43.0517 140.914 37.1831 140.914 30.7043C140.914 29.7653 140.82 28.3568 140.632 26.4789C139.881 21.5024 138.097 17.0423 135.28 13.0986C132.557 9.15497 129.13 6.10333 124.998 3.9437C120.867 1.78408 116.36 0.798165 111.477 0.985956H109.107V22.5353H109.787C112.322 22.5353 114.482 23.5212 116.266 25.493C117.956 27.4648 118.66 29.6245 118.378 31.9719V32.2536C118.378 34.601 117.674 36.8545 116.266 39.0141C114.576 40.986 112.416 41.9719 109.787 41.9719H109.107V62.6904Z" fill="#406363"/>
<path d="M94.0163 22.5353H93.5898V41.9719H94.0163V62.9578H94.0123V98.0282C94.0123 98.3099 93.9653 98.5446 93.8714 98.7324C93.7775 98.9202 93.6837 99.0611 93.5898 99.155C93.2142 99.5305 92.8386 99.7183 92.463 99.7183H71.3362C71.0546 99.7183 70.7729 99.6244 70.4912 99.4366C70.3034 99.155 70.2095 98.8733 70.2095 98.5916V2.11272C70.2095 1.73713 70.3034 1.45544 70.4912 1.26765C70.7729 1.07985 71.0546 0.985956 71.3362 0.985956H94.0163V22.5353Z" fill="#406363"/>
<path d="M144.153 98.0282C144.529 98.4977 144.529 98.9202 144.153 99.2958C144.059 99.5775 143.731 99.7183 143.167 99.7183H118.66C118.191 99.7183 117.862 99.5305 117.674 99.155L113.179 77.7465C120.724 75.1877 123.239 75.4527 128.599 69.2555L144.153 98.0282Z" fill="#406363"/>
<path d="M91.5012 21.4688H94.0163V44.1046H91.5012V21.4688Z" fill="#406363"/>
</svg>
