<svg width="40" height="41" viewBox="0 0 40 41" fill="none" xmlns="http://www.w3.org/2000/svg">
<path d="M36.37 12.9827C36.2167 12.7611 36.012 12.58 35.7734 12.4549C35.5348 12.3298 35.2694 12.2644 35 12.2643H12.2217L10.2983 7.64766C10.0462 7.0397 9.61912 6.52031 9.07138 6.15535C8.52364 5.79039 7.87987 5.59629 7.22168 5.59766H3.33334V8.931H7.22168L15.1283 27.906C15.255 28.2096 15.4686 28.4689 15.7424 28.6513C16.0161 28.8337 16.3377 28.931 16.6667 28.931H30C30.695 28.931 31.3167 28.4993 31.5617 27.851L36.5617 14.5177C36.6562 14.2654 36.6881 13.9939 36.6547 13.7266C36.6213 13.4592 36.5236 13.204 36.37 12.9827Z" fill="#406363"/>
<path d="M17.5 35.5977C18.8807 35.5977 20 34.4784 20 33.0977C20 31.7169 18.8807 30.5977 17.5 30.5977C16.1193 30.5977 15 31.7169 15 33.0977C15 34.4784 16.1193 35.5977 17.5 35.5977Z" fill="#406363"/>
<path d="M29.1667 35.5977C30.5474 35.5977 31.6667 34.4784 31.6667 33.0977C31.6667 31.7169 30.5474 30.5977 29.1667 30.5977C27.7859 30.5977 26.6667 31.7169 26.6667 33.0977C26.6667 34.4784 27.7859 35.5977 29.1667 35.5977Z" fill="#406363"/>
</svg>
