<svg width="40" height="40" viewBox="0 0 40 40" fill="none" xmlns="http://www.w3.org/2000/svg">
<path d="M36.3697 12.385C36.2164 12.1635 36.0117 11.9824 35.7731 11.8573C35.5345 11.7322 35.2691 11.6668 34.9997 11.6667H12.2213L10.298 7.05001C10.0458 6.44204 9.61879 5.92265 9.07105 5.55769C8.52331 5.19273 7.87953 4.99863 7.22134 5.00001H3.33301V8.33334H7.22134L15.128 27.3083C15.2547 27.6119 15.4683 27.8713 15.742 28.0537C16.0158 28.2361 16.3374 28.3334 16.6663 28.3333H29.9997C30.6947 28.3333 31.3163 27.9017 31.5613 27.2533L36.5613 13.92C36.6558 13.6677 36.6878 13.3963 36.6544 13.1289C36.621 12.8616 36.5233 12.6063 36.3697 12.385Z" fill="white"/>
<path d="M17.5 35C18.8807 35 20 33.8807 20 32.5C20 31.1193 18.8807 30 17.5 30C16.1193 30 15 31.1193 15 32.5C15 33.8807 16.1193 35 17.5 35Z" fill="white"/>
<path d="M29.167 35C30.5477 35 31.667 33.8807 31.667 32.5C31.667 31.1193 30.5477 30 29.167 30C27.7863 30 26.667 31.1193 26.667 32.5C26.667 33.8807 27.7863 35 29.167 35Z" fill="white"/>
</svg>
